<?xml version="1.0" encoding="utf-8"?>
<!-- Generator: Adobe Illustrator 16.0.0, SVG Export Plug-In . SVG Version: 6.00 Build 0)  -->
<!DOCTYPE svg PUBLIC "-//W3C//DTD SVG 1.1//EN" "http://www.w3.org/Graphics/SVG/1.1/DTD/svg11.dtd">
<svg version="1.1" id="Layer_1" xmlns="http://www.w3.org/2000/svg" xmlns:xlink="http://www.w3.org/1999/xlink" x="0px" y="0px"
	 width="241.665px" height="125.741px" viewBox="0 0 241.665 125.741" enable-background="new 0 0 241.665 125.741"
	 xml:space="preserve">
<g>
	<path d="M72.259,45.75h-8.936V2.383h8.936V45.75z"/>
	<path d="M84.858,4.378l-0.864,12.033h-5.451V0h6.314V4.378z"/>
	<path d="M97.309,13.522l0.268,3.604c1.072-1.311,2.378-2.338,3.917-3.083c1.539-0.745,3.321-1.117,5.347-1.117
		c1.926,0,3.629,0.387,5.108,1.162c1.479,0.774,2.625,2.025,3.44,3.753c1.052-1.529,2.378-2.73,3.976-3.604
		c1.599-0.874,3.5-1.311,5.704-1.311c1.568,0,2.993,0.219,4.274,0.655c1.28,0.437,2.373,1.142,3.276,2.115
		c0.903,0.973,1.598,2.239,2.085,3.797c0.486,1.559,0.729,3.47,0.729,5.734V45.75h-8.638V25.228c0-1.072-0.114-1.956-0.343-2.651
		c-0.228-0.695-0.551-1.236-0.968-1.623c-0.417-0.388-0.923-0.655-1.519-0.805c-0.596-0.148-1.271-0.223-2.025-0.223
		c-1.331,0-2.442,0.333-3.336,0.998c-0.894,0.666-1.569,1.564-2.025,2.696c0,0.1,0.005,0.208,0.015,0.328
		c0.01,0.119,0.015,0.229,0.015,0.328V45.75h-8.608V25.288c0-1.072-0.109-1.956-0.328-2.651c-0.219-0.695-0.536-1.241-0.953-1.638
		c-0.417-0.397-0.928-0.675-1.534-0.834c-0.605-0.159-1.286-0.238-2.04-0.238c-1.271,0-2.343,0.268-3.217,0.804
		c-0.874,0.536-1.569,1.281-2.085,2.234V45.75h-8.608V13.522H97.309z"/>
</g>
<g>
	<path d="M23.423,83.587H13.037v23.163H0V43.477h23.51c3.65,0,6.924,0.413,9.821,1.238c2.896,0.826,5.345,2.043,7.344,3.65
		c1.999,1.608,3.534,3.601,4.606,5.976c1.071,2.376,1.608,5.128,1.608,8.257c0,2.318-0.261,4.396-0.782,6.236
		s-1.275,3.477-2.26,4.91c-0.985,1.435-2.173,2.688-3.563,3.759c-1.391,1.072-2.955,1.999-4.693,2.781l13.689,25.857v0.608H35.287
		L23.423,83.587z M13.037,73.027h10.517c1.709,0,3.208-0.224,4.498-0.674c1.289-0.449,2.361-1.086,3.216-1.912
		c0.854-0.825,1.499-1.81,1.934-2.955c0.435-1.144,0.652-2.426,0.652-3.846c0-2.983-0.847-5.33-2.542-7.04
		c-1.694-1.709-4.295-2.564-7.8-2.564H13.037V73.027z"/>
	<path d="M77.614,107.619c-3.65,0-6.917-0.594-9.799-1.782c-2.883-1.188-5.331-2.81-7.345-4.867
		c-2.014-2.057-3.549-4.469-4.606-7.236c-1.058-2.766-1.586-5.729-1.586-8.887v-1.695c0-3.563,0.514-6.83,1.543-9.799
		c1.028-2.97,2.491-5.526,4.389-7.67c1.897-2.144,4.201-3.817,6.91-5.019c2.708-1.202,5.743-1.804,9.104-1.804
		c3.39,0,6.373,0.558,8.952,1.673c2.578,1.116,4.744,2.68,6.497,4.693c1.753,2.014,3.071,4.44,3.955,7.279
		c0.883,2.84,1.325,5.997,1.325,9.474v5.345H67.011c0.202,1.536,0.615,2.927,1.239,4.172c0.623,1.246,1.419,2.311,2.39,3.194
		c0.971,0.884,2.108,1.572,3.412,2.064c1.304,0.493,2.766,0.739,4.389,0.739c2.288,0,4.403-0.427,6.345-1.282
		c1.94-0.854,3.607-2.18,4.998-3.977l6.171,6.91c-0.754,1.072-1.695,2.115-2.825,3.129c-1.13,1.015-2.463,1.919-3.998,2.716
		c-1.536,0.797-3.267,1.434-5.193,1.912C82.01,107.38,79.902,107.619,77.614,107.619z M76.18,69.029
		c-1.362,0-2.557,0.239-3.585,0.717c-1.029,0.479-1.912,1.145-2.651,1.999c-0.738,0.855-1.34,1.876-1.803,3.064
		c-0.464,1.188-0.797,2.506-1,3.955h17.47v-1c-0.029-1.245-0.21-2.404-0.543-3.477c-0.333-1.071-0.841-1.999-1.521-2.781
		s-1.55-1.391-2.607-1.825S77.628,69.029,76.18,69.029z"/>
	<path d="M131.327,106.75c-0.58-1.13-1-2.535-1.26-4.215c-1.275,1.42-2.875,2.623-4.802,3.607s-4.28,1.478-7.062,1.478
		c-2.26,0-4.367-0.348-6.323-1.043c-1.955-0.695-3.65-1.666-5.084-2.912c-1.435-1.245-2.558-2.73-3.368-4.455
		c-0.812-1.723-1.217-3.613-1.217-5.671c0-2.462,0.456-4.65,1.369-6.562c0.912-1.912,2.281-3.534,4.106-4.867
		c1.825-1.332,4.092-2.347,6.801-3.042s5.859-1.043,9.452-1.043h5.606v-2.694c0-2.173-0.558-3.911-1.673-5.215
		s-2.875-1.956-5.28-1.956c-2.115,0-3.774,0.507-4.976,1.521c-1.202,1.015-1.803,2.405-1.803,4.172h-12.559
		c0-2.027,0.471-3.955,1.412-5.78s2.282-3.418,4.02-4.78c1.738-1.361,3.838-2.44,6.301-3.237c2.462-0.797,5.215-1.195,8.257-1.195
		c2.723,0,5.243,0.348,7.562,1.043c2.317,0.695,4.316,1.731,5.997,3.107c1.68,1.376,2.991,3.1,3.933,5.171
		c0.941,2.072,1.413,4.484,1.413,7.236v19.903c0,1.333,0.043,2.528,0.13,3.585s0.202,2.014,0.348,2.868
		c0.145,0.854,0.333,1.623,0.565,2.303c0.231,0.681,0.506,1.326,0.826,1.934v0.739H131.327z M120.941,98.015
		c1.071,0,2.064-0.13,2.977-0.391c0.912-0.261,1.73-0.601,2.455-1.021c0.724-0.419,1.354-0.905,1.891-1.456
		c0.536-0.55,0.962-1.115,1.282-1.695v-8.083h-5.171c-1.651,0-3.085,0.181-4.302,0.543c-1.217,0.363-2.216,0.869-2.999,1.521
		c-0.782,0.651-1.362,1.419-1.738,2.303c-0.377,0.884-0.565,1.847-0.565,2.89c0,1.564,0.55,2.854,1.651,3.868
		C117.522,97.509,119.029,98.015,120.941,98.015z"/>
	<path d="M149.84,82.892c0-3.563,0.413-6.823,1.238-9.778c0.826-2.955,2.021-5.49,3.585-7.605c1.564-2.114,3.491-3.751,5.78-4.911
		c2.288-1.158,4.896-1.738,7.822-1.738c2.404,0,4.541,0.45,6.41,1.347c1.868,0.898,3.512,2.159,4.932,3.781V40h12.603v66.75h-11.342
		l-0.608-4.998c-1.478,1.854-3.202,3.296-5.171,4.324c-1.971,1.028-4.274,1.543-6.91,1.543c-2.897,0-5.483-0.602-7.757-1.804
		c-2.275-1.202-4.194-2.86-5.758-4.976c-1.564-2.114-2.759-4.628-3.585-7.54c-0.825-2.911-1.238-6.076-1.238-9.495V82.892z
		 M162.399,83.805c0,1.912,0.159,3.694,0.478,5.345c0.318,1.651,0.833,3.093,1.543,4.324c0.709,1.232,1.636,2.202,2.781,2.912
		c1.144,0.71,2.542,1.064,4.193,1.064c2.027,0,3.716-0.435,5.063-1.304c1.348-0.869,2.397-2.071,3.151-3.607V73.983
		c-0.754-1.564-1.803-2.774-3.151-3.629c-1.347-0.854-3.006-1.282-4.976-1.282c-1.651,0-3.057,0.355-4.215,1.065
		c-1.159,0.71-2.093,1.688-2.803,2.933c-0.71,1.246-1.231,2.709-1.564,4.389c-0.333,1.681-0.5,3.492-0.5,5.432V83.805z"/>
	<path d="M219.501,88.976l8.691-29.247h13.472l-18.817,54.061c-0.435,1.188-0.993,2.477-1.673,3.868
		c-0.681,1.391-1.602,2.687-2.76,3.889c-1.159,1.202-2.593,2.202-4.302,2.999c-1.71,0.796-3.81,1.195-6.301,1.195
		c-0.58,0-1.102-0.022-1.564-0.065c-0.464-0.044-0.913-0.095-1.347-0.152c-0.435-0.059-0.862-0.138-1.282-0.239
		c-0.42-0.102-0.877-0.225-1.369-0.369v-9.517c0.318,0,0.645,0.007,0.978,0.022c0.333,0.014,0.645,0.021,0.935,0.021
		c1.245,0,2.31-0.094,3.194-0.282c0.883-0.189,1.644-0.493,2.281-0.913c0.637-0.42,1.173-0.949,1.608-1.586
		c0.435-0.638,0.811-1.391,1.13-2.26l1.347-3.52l-16.47-47.151h13.515L219.501,88.976z"/>
</g>
</svg>
